<svg width="235" height="51" viewBox="0 0 235 51" fill="none" xmlns="http://www.w3.org/2000/svg">
<rect x="1" y="1" width="233" height="46" rx="23" fill="black" stroke="white" stroke-width="2"/>
<path d="M47.1133 34.4141C46.5625 35.1055 45.8828 35.709 45.0742 36.2246C44.2656 36.7402 43.3984 37.168 42.4727 37.5078C41.5469 37.8477 40.5977 38.0996 39.625 38.2637C38.6523 38.4395 37.7266 38.5273 36.8477 38.5273C35.1484 38.5273 33.584 38.2227 32.1543 37.6133C30.7246 37.0039 29.4883 36.166 28.4453 35.0996C27.4141 34.0215 26.6055 32.7559 26.0195 31.3027C25.4336 29.8496 25.1406 28.2852 25.1406 26.6094C25.1406 25.332 25.2871 24.084 25.5801 22.8652C25.873 21.6348 26.2891 20.4805 26.8281 19.4023C27.3789 18.3125 28.0469 17.3164 28.832 16.4141C29.6172 15.5 30.5078 14.7148 31.5039 14.0586C32.5 13.4023 33.5898 12.8926 34.7734 12.5293C35.957 12.166 37.2227 11.9844 38.5703 11.9844C39.0742 11.9844 39.6133 12.0078 40.1875 12.0547C40.7617 12.0898 41.3301 12.1602 41.8926 12.2656C42.4668 12.3594 43.0234 12.4941 43.5625 12.6699C44.1016 12.8457 44.5938 13.0625 45.0391 13.3203L44.5469 20.0352C43.8906 19.7891 43.2109 19.625 42.5078 19.543C41.8164 19.4492 41.1367 19.4023 40.4688 19.4023C39.5312 19.4023 38.6523 19.5488 37.832 19.8418C37.0234 20.123 36.3145 20.5332 35.7051 21.0723C35.1074 21.6113 34.6328 22.2676 34.2812 23.041C33.9297 23.8145 33.7539 24.6875 33.7539 25.6602C33.7539 26.2695 33.8359 26.8613 34 27.4355C34.1641 27.998 34.4102 28.502 34.7383 28.9473C35.0781 29.3809 35.4941 29.7324 35.9863 30.002C36.4902 30.2715 37.0703 30.4062 37.7266 30.4062C38.1719 30.4062 38.6289 30.3477 39.0977 30.2305C39.5781 30.1133 39.9883 29.9141 40.3281 29.6328L40.3984 28.2617L36.1797 28.1914L36.3906 22.918C38.1367 22.8594 39.8828 22.8125 41.6289 22.7773C43.375 22.7305 45.1328 22.6719 46.9023 22.6016L47.1133 34.4141ZM70.6328 36.4883L61.9141 37.6133L60.8594 33.6406H56.8516L55.9727 37.6133L47.0078 36.7344L54.0039 13.3203L63.7773 12.8281L70.6328 36.4883ZM60.2266 28.2617L58.8906 22.1445L57.5898 28.2617H60.2266ZM94.9082 12.793L93.6426 36.6289L84.4316 37.4727L79.5098 24.7109L78.7363 37.7188H70.8262L71.459 12.793L80.248 12.3711L86.3301 25.0273L86.6113 13.0742L94.9082 12.793ZM112.996 12.6523C112.926 13.7539 112.861 14.8438 112.803 15.9219C112.744 17 112.668 18.0898 112.574 19.1914L105.121 19.5781L104.945 21.793H110.184L109.797 27.2422L104.523 27.418L104.348 29.9844H108.707H111.801C111.73 31.2734 111.654 32.5566 111.572 33.834C111.502 35.0996 111.438 36.3711 111.379 37.6484L96.2266 38L96.7891 12.6523H112.996ZM131.611 28.6484C131.611 30.2539 131.33 31.6602 130.768 32.8672C130.217 34.0625 129.455 35.0586 128.482 35.8555C127.521 36.6523 126.391 37.25 125.09 37.6484C123.801 38.0469 122.412 38.2461 120.924 38.2461C120.35 38.2461 119.717 38.1699 119.025 38.0176C118.346 37.8652 117.654 37.6777 116.951 37.4551C116.248 37.2207 115.568 36.9746 114.912 36.7168C114.268 36.4473 113.693 36.1953 113.189 35.9609L113.963 28.7188C114.959 29.3164 116.061 29.7734 117.268 30.0898C118.486 30.3945 119.682 30.5469 120.854 30.5469C121.076 30.5469 121.346 30.541 121.662 30.5293C121.979 30.5059 122.277 30.4531 122.559 30.3711C122.852 30.2773 123.098 30.1426 123.297 29.9668C123.496 29.791 123.596 29.5391 123.596 29.2109C123.596 28.9883 123.525 28.8008 123.385 28.6484C123.244 28.4844 123.062 28.3555 122.84 28.2617C122.617 28.1562 122.365 28.0801 122.084 28.0332C121.803 27.9746 121.527 27.9336 121.258 27.9102C120.988 27.8867 120.736 27.875 120.502 27.875C120.268 27.875 120.08 27.875 119.939 27.875C118.932 27.875 118.012 27.6992 117.18 27.3477C116.359 26.9961 115.65 26.5098 115.053 25.8887C114.467 25.2559 114.01 24.5117 113.682 23.6562C113.354 22.7891 113.189 21.8516 113.189 20.8438C113.189 19.4609 113.465 18.2246 114.016 17.1348C114.578 16.0332 115.322 15.1016 116.248 14.3398C117.186 13.5664 118.258 12.9746 119.465 12.5645C120.672 12.1543 121.92 11.9492 123.209 11.9492C123.783 11.9492 124.375 11.9727 124.984 12.0195C125.594 12.0547 126.197 12.125 126.795 12.2305C127.404 12.3359 127.996 12.4707 128.57 12.6348C129.145 12.7988 129.689 13.0039 130.205 13.25L129.537 20.3867C128.74 20.1172 127.902 19.8945 127.023 19.7188C126.156 19.5312 125.307 19.4375 124.475 19.4375C124.322 19.4375 124.123 19.4434 123.877 19.4551C123.643 19.4551 123.391 19.4727 123.121 19.5078C122.863 19.5312 122.6 19.5723 122.33 19.6309C122.061 19.6895 121.82 19.7715 121.609 19.877C121.398 19.9707 121.229 20.0996 121.1 20.2637C120.971 20.4277 120.912 20.6211 120.924 20.8438C120.936 21.1016 121.029 21.3125 121.205 21.4766C121.393 21.6289 121.627 21.752 121.908 21.8457C122.201 21.9277 122.518 21.9863 122.857 22.0215C123.209 22.0566 123.555 22.0801 123.895 22.0918C124.234 22.0918 124.551 22.0918 124.844 22.0918C125.137 22.0801 125.377 22.0859 125.564 22.1094C126.502 22.168 127.346 22.3672 128.096 22.707C128.846 23.0469 129.479 23.498 129.994 24.0605C130.521 24.623 130.92 25.2969 131.189 26.082C131.471 26.8555 131.611 27.7109 131.611 28.6484ZM153.602 38L144.812 38.4219L144.742 30.3008H140.699L140.453 38H132.578L133.246 13.2852L141.613 13.6719L141.086 26.293H144.988L145.023 12.7227L153.039 12.9336L153.602 38ZM177.438 36.4883L168.719 37.6133L167.664 33.6406H163.656L162.777 37.6133L153.812 36.7344L160.809 13.3203L170.582 12.8281L177.438 36.4883ZM167.031 28.2617L165.695 22.1445L164.395 28.2617H167.031Z" fill="white"/>
<path d="M207.408 27.4531L205.475 27.4971L205.079 36.9893L195.147 37.8682L195.675 27.7168L183.941 27.9805L187.193 8.68848H195.499L193.082 22.1357L195.982 22.0479L196.817 5.39258H206.354L205.694 21.6963L207.408 21.6084V27.4531Z" fill="#FF0000"/>
</svg>
