<svg width="99" height="69" viewBox="0 0 99 69" fill="none" xmlns="http://www.w3.org/2000/svg">
<rect x="1" y="1" width="97" height="67" rx="24" fill="black" stroke="white" stroke-width="2"/>
<path d="M48.3984 49.4219C47.5417 50.4974 46.4844 51.4362 45.2266 52.2383C43.9688 53.0404 42.6198 53.7057 41.1797 54.2344C39.7396 54.763 38.263 55.1549 36.75 55.4102C35.237 55.6836 33.7969 55.8203 32.4297 55.8203C29.7865 55.8203 27.3529 55.3464 25.1289 54.3984C22.9049 53.4505 20.9818 52.1471 19.3594 50.4883C17.7552 48.8112 16.4974 46.8424 15.5859 44.582C14.6745 42.3216 14.2188 39.888 14.2188 37.2812C14.2188 35.2943 14.4466 33.3529 14.9023 31.457C15.3581 29.543 16.0052 27.7474 16.8438 26.0703C17.7005 24.375 18.7396 22.8255 19.9609 21.4219C21.1823 20 22.5677 18.7786 24.1172 17.7578C25.6667 16.737 27.362 15.944 29.2031 15.3789C31.0443 14.8138 33.013 14.5312 35.1094 14.5312C35.8932 14.5312 36.7318 14.5677 37.625 14.6406C38.5182 14.6953 39.4023 14.8047 40.2773 14.9688C41.1706 15.1146 42.0365 15.3242 42.875 15.5977C43.7135 15.8711 44.4792 16.2083 45.1719 16.6094L44.4062 27.0547C43.3854 26.6719 42.3281 26.4167 41.2344 26.2891C40.1589 26.1432 39.1016 26.0703 38.0625 26.0703C36.6042 26.0703 35.237 26.2982 33.9609 26.7539C32.7031 27.1914 31.6003 27.8294 30.6523 28.668C29.7227 29.5065 28.9844 30.5273 28.4375 31.7305C27.8906 32.9336 27.6172 34.2917 27.6172 35.8047C27.6172 36.7526 27.7448 37.6732 28 38.5664C28.2552 39.4414 28.638 40.2253 29.1484 40.918C29.6771 41.5924 30.3242 42.1393 31.0898 42.5586C31.8737 42.9779 32.776 43.1875 33.7969 43.1875C34.4896 43.1875 35.2005 43.0964 35.9297 42.9141C36.6771 42.7318 37.3151 42.4219 37.8438 41.9844L37.9531 39.8516L31.3906 39.7422L31.7188 31.5391C34.4349 31.4479 37.151 31.375 39.8672 31.3203C42.5833 31.2474 45.3177 31.1562 48.0703 31.0469L48.3984 49.4219Z" fill="white"/>
<path d="M83.0059 39.7656L80.2129 39.8291L79.6416 53.54L65.2959 54.8096L66.0576 40.1465L49.1094 40.5273L53.8066 12.6611H65.8037L62.3125 32.085L66.502 31.958L67.708 7.90039H81.4824L80.5303 31.4502L83.0059 31.3232V39.7656Z" fill="#FF0000"/>
</svg>
